<?xml version="1.0" encoding="UTF-8" standalone="no"?>
<!-- Created with Inkscape (http://www.inkscape.org/) -->

<svg
   xmlns:dc="http://purl.org/dc/elements/1.1/"
   xmlns:cc="http://creativecommons.org/ns#"
   xmlns:rdf="http://www.w3.org/1999/02/22-rdf-syntax-ns#"
   xmlns:svg="http://www.w3.org/2000/svg"
   xmlns="http://www.w3.org/2000/svg"
   xmlns:sodipodi="http://sodipodi.sourceforge.net/DTD/sodipodi-0.dtd"
   xmlns:inkscape="http://www.inkscape.org/namespaces/inkscape"
   width="613.00537"
   height="106.40504"
   viewBox="0 0 162.19099 28.153"
   version="1.1"
   id="svg180"
   inkscape:version="0.92.2 (5c3e80d, 2017-08-06)"
   sodipodi:docname="sedona-sign.svg">
  <defs
     id="defs174" />
  <sodipodi:namedview
     id="base"
     pagecolor="#ffffff"
     bordercolor="#666666"
     borderopacity="1.0"
     inkscape:pageopacity="0.0"
     inkscape:pageshadow="2"
     inkscape:zoom="0.98994949"
     inkscape:cx="296.78139"
     inkscape:cy="-183.58897"
     inkscape:document-units="mm"
     inkscape:current-layer="layer1"
     showgrid="false"
     units="px"
     inkscape:window-width="1600"
     inkscape:window-height="877"
     inkscape:window-x="-8"
     inkscape:window-y="-8"
     inkscape:window-maximized="1" />
  <metadata
     id="metadata177">
    <rdf:RDF>
      <cc:Work
         rdf:about="">
        <dc:format>image/svg+xml</dc:format>
        <dc:type
           rdf:resource="http://purl.org/dc/dcmitype/StillImage" />
        <dc:title></dc:title>
      </cc:Work>
    </rdf:RDF>
  </metadata>
  <g
     inkscape:label="Layer 1"
     inkscape:groupmode="layer"
     id="layer1"
     transform="translate(0,-268.847)">
    <g
       id="g204"
       transform="translate(-54.975844,93.268499)">
      <path
         inkscape:connector-curvature="0"
         id="path3987"
         style="fill:#ffffff;fill-opacity:1;fill-rule:nonzero;stroke:none;stroke-width:0.35277775"
         d="m 70.66246,183.24673 c -1.260122,-1.05093 -2.871258,-1.75084 -4.551539,-1.75084 -1.260122,0 -2.941461,0.73519 -2.941461,2.20592 0,1.54093 1.855964,2.13607 3.046589,2.52095 l 1.751189,0.52529 c 3.67665,1.08549 6.51263,2.9411 6.51263,7.2136 0,2.62643 -0.630413,5.32235 -2.731205,7.10811 -2.065514,1.75119 -4.831997,2.48638 -7.493,2.48638 -3.326695,0 -6.583186,-1.12077 -9.279819,-3.01166 l 2.941461,-5.53261 c 1.716264,1.506 3.746852,2.7312 6.092824,2.7312 1.610784,0 3.326695,-0.80539 3.326695,-2.66171 0,-1.92581 -2.696281,-2.5908 -4.167011,-3.01096 -4.306711,-1.2259 -7.143397,-2.34562 -7.143397,-7.45878 0,-5.35798 3.81635,-8.85895 9.104136,-8.85895 2.661003,0 5.917847,0.84032 8.264172,2.17099 z" />
      <path
         inkscape:connector-curvature="0"
         id="path3991"
         style="fill:#ffffff;fill-opacity:1;fill-rule:nonzero;stroke:none;stroke-width:0.35277775"
         d="m 87.371885,182.26643 v 4.41184 h 7.738888 v 5.81342 h -7.738888 v 4.55083 h 8.158692 v 5.81343 H 80.508594 v -26.40189 h 15.021983 v 5.81272 h -8.158692 z" />
      <path
         inkscape:connector-curvature="0"
         id="path3995"
         style="fill:#ffffff;fill-opacity:1;fill-rule:nonzero;stroke:none;stroke-width:0.35277775"
         d="m 107.49468,197.04313 h 1.54058 c 4.09646,0 7.59848,-2.24085 7.59848,-7.38788 0,-4.72757 -3.11644,-7.38857 -7.52863,-7.38857 h -1.61043 z m -6.86329,-20.58953 h 9.73455 c 7.3533,0 13.4112,5.77745 13.4112,13.20095 0,7.4228 -6.09283,13.20094 -13.4112,13.20094 h -9.73455 z" />
      <path
         inkscape:connector-curvature="0"
         id="path3999"
         style="fill:#ffffff;fill-opacity:1;fill-rule:nonzero;stroke:none;stroke-width:0.35277775"
         d="m 134.11769,189.1995 c 0,4.5526 3.36162,7.87859 7.45808,7.87859 4.0968,0 7.45878,-3.3267 7.45878,-7.87859 0,-3.64172 -3.36056,-6.96807 -7.45878,-6.96807 -4.09681,0 -7.45808,3.3267 -7.45808,6.96807 m 22.0606,-0.0349 c 0,8.54392 -6.1281,14.5669 -14.60252,14.5669 -8.47373,0 -14.60183,-6.02227 -14.60183,-14.5669 0,-7.98407 7.00335,-13.58654 14.60183,-13.58654 7.59848,0 14.60252,5.60247 14.60252,13.58653" />
      <path
         inkscape:connector-curvature="0"
         id="path4003"
         style="fill:#ffffff;fill-opacity:1;fill-rule:nonzero;stroke:none;stroke-width:0.35277775"
         d="m 159.83497,176.45371 h 6.86294 l 12.57159,16.14205 h 0.0691 v -16.14205 h 6.86258 v 26.40153 h -6.86258 l -12.57119,-16.17697 h -0.0695 v 16.17697 h -6.86294 z" />
      <path
         inkscape:connector-curvature="0"
         id="path4007"
         style="fill:#ffffff;fill-opacity:1;fill-rule:nonzero;stroke:none;stroke-width:0.35277775"
         d="m 203.47605,184.61237 h -0.0702 l -2.83598,8.40457 h 5.70689 z m -4.79813,13.65602 -1.82033,4.58682 h -7.2831 l 10.15471,-26.40154 h 7.49371 l 9.9441,26.40154 h -7.31873 l -1.71521,-4.58682 z" />
    </g>
  </g>
</svg>
