<?xml version="1.0" encoding="UTF-8" standalone="no"?>
<!-- Created with Inkscape (http://www.inkscape.org/) -->

<svg
   xmlns:dc="http://purl.org/dc/elements/1.1/"
   xmlns:cc="http://creativecommons.org/ns#"
   xmlns:rdf="http://www.w3.org/1999/02/22-rdf-syntax-ns#"
   xmlns:svg="http://www.w3.org/2000/svg"
   xmlns="http://www.w3.org/2000/svg"
   xmlns:sodipodi="http://sodipodi.sourceforge.net/DTD/sodipodi-0.dtd"
   xmlns:inkscape="http://www.inkscape.org/namespaces/inkscape"
   version="1.1"
   id="svg10"
   xml:space="preserve"
   width="32"
   height="29.841734"
   viewBox="0 0 32 29.841734"
   sodipodi:docname="like-icon.svg"
   inkscape:version="0.92.2 (5c3e80d, 2017-08-06)"><metadata
     id="metadata16"><rdf:RDF><cc:Work
         rdf:about=""><dc:format>image/svg+xml</dc:format><dc:type
           rdf:resource="http://purl.org/dc/dcmitype/StillImage" /><dc:title></dc:title></cc:Work></rdf:RDF></metadata><defs
     id="defs14"><clipPath
       clipPathUnits="userSpaceOnUse"
       id="clipPath26"><path
         d="M 0,22.381 H 24 V 0 H 0 Z"
         id="path24"
         inkscape:connector-curvature="0" /></clipPath></defs><sodipodi:namedview
     pagecolor="#ffffff"
     bordercolor="#666666"
     borderopacity="1"
     objecttolerance="10"
     gridtolerance="10"
     guidetolerance="10"
     inkscape:pageopacity="0"
     inkscape:pageshadow="2"
     inkscape:window-width="1600"
     inkscape:window-height="877"
     id="namedview12"
     showgrid="false"
     inkscape:zoom="23.792183"
     inkscape:cx="16"
     inkscape:cy="14.920867"
     inkscape:window-x="-8"
     inkscape:window-y="-8"
     inkscape:window-maximized="1"
     inkscape:current-layer="g18" /><g
     id="g18"
     inkscape:groupmode="layer"
     inkscape:label="like-icon"
     transform="matrix(1.3333333,0,0,-1.3333333,0,29.841733)"><g
       id="g20"><g
         id="g22"
         clip-path="url(#clipPath26)"><g
           id="g28"
           transform="translate(23,12)"><path
             d="m 0,0 v -0.044 z m -18,1 h -4 v -12 h 4 z m 9.2,8 -6.6,-6.6 C -15.8,2.1 -16,1.6 -16,1 V -9 c 0,-1.1 0.9,-2 2,-2 h 9 c 0.8,0 1.5,0.5 1.8,1.2 l 3,7.1 c 0.1,0.2 0.1,0.5 0.1,0.7 V 0 H 0 c 0,1.1 -0.9,2 -2,2 h -6.3 l 1,4.6 v 0.3 c 0,0.4 -0.2,0.8 -0.4,1.1 z M -20,-1 v -8 8 M -9.617,5.354 -10.254,2.425 -10.781,0 h 2.481 6.2 v -2 c 0,-0.018 0,-0.037 10e-4,-0.058 L -5,-9 h -9 v 9.971 l 0.014,0.015 4.369,4.368"
             style="fill:#ffffff;fill-opacity:1;fill-rule:nonzero;stroke:none"
             id="path30"
             inkscape:connector-curvature="0" /></g></g></g></g></svg>